<?xml version="1.0" encoding="utf-8"?>
<!-- Generator: Adobe Illustrator 16.0.0, SVG Export Plug-In . SVG Version: 6.00 Build 0)  -->
<!DOCTYPE svg PUBLIC "-//W3C//DTD SVG 1.1//EN" "http://www.w3.org/Graphics/SVG/1.1/DTD/svg11.dtd">
<svg version="1.1" id="Ebene_1" xmlns="http://www.w3.org/2000/svg" xmlns:xlink="http://www.w3.org/1999/xlink" x="0px" y="0px"
	 width="600px" height="600px" viewBox="0 0 600 600" enable-background="new 0 0 600 600" xml:space="preserve">
<g>
	<path fill="#999999" d="M324.471,60.473C362.578,10.244,415.559,10,415.559,10s7.881,47.223-29.979,92.714
		c-40.424,48.574-86.372,40.625-86.372,40.625S290.582,105.138,324.471,60.473z"/>
	<path fill="#999999" d="M304.057,176.419c19.605,0,55.99-26.949,103.352-26.949c81.523,0,113.596,58.009,113.596,58.009
		s-62.727,32.071-62.727,109.888c0,87.785,78.141,118.037,78.141,118.037s-54.623,153.742-128.402,153.742
		c-33.887,0-60.23-22.836-95.936-22.836c-36.385,0-72.494,23.689-96.01,23.689c-67.373,0.002-152.487-145.838-152.487-263.07
		c0-115.338,72.043-175.843,139.618-175.843C247.129,151.086,281.219,176.419,304.057,176.419z"/>
</g>
</svg>
